# xmcd
#
# Track frame offsets:
#	150
#	13688
#	24656
#	39093
#	50152
#	63467
#	72632
#	89512
#	101640
#	113082
#
# Disc length: 1687 seconds
#
# Revision: 0
# Processed by: cddbd v1.4PL0 Copyright (c) Steve Scherf et al.
# Submitted via: dBpowerAMP V4.0
#
DISCID=8806950a
DTITLE=Waylon Jennings - Super Hits II
DYEAR=1998
DGENRE=Country
TTITLE0=Don't You Think This Outlaw Bit's Done Got Out Of Hand
TTITLE1=This Time
TTITLE2=Are You Ready For The Country
TTITLE3=Dreaming My Dreams With You
TTITLE4=Drinkin' And Dreamin'
TTITLE5=Brown Eyed Handsome Man
TTITLE6=Can't You See
TTITLE7=You Can Have Her
TTITLE8=Mammas Don't Let Your Babies Grow Up To Be Cowboys (with Willie Nelson)
TTITLE9=Never Could Toe The Mark
EXTD=
EXTT0=
EXTT1=
EXTT2=
EXTT3=
EXTT4=
EXTT5=
EXTT6=
EXTT7=
EXTT8=
EXTT9=
PLAYORDER=
